<svg width="20" height="30" fill="none" xmlns="http://www.w3.org/2000/svg"><path d="M17.199 19.564c-1.752 1.02-4.162 1.424-5.754 1.576l1.337 1.207 4.877 4.469c1.784 1.675-1.119 4.294-2.921 2.677a988.19 988.19 0 00-4.878-4.487l-4.877 4.48C3.18 31.099.278 28.457 2.08 26.81c1.24-1.136 3.011-2.776 4.878-4.47l1.317-1.206c-1.573-.152-4.021-.533-5.792-1.576C.4 18.328-.515 17.608.29 16.102c.474-.855 1.771-1.575 3.49-.334 0 0 2.321 1.693 6.067 1.693s6.067-1.692 6.067-1.692c1.72-1.236 3.01-.522 3.49.333.793 1.506-.121 2.226-2.205 3.462zM1.549 7.597C1.55 3.397 5.278 0 9.842 0s8.291 3.397 8.291 7.597c0 4.183-3.727 7.58-8.291 7.58S1.55 11.78 1.55 7.597zm4.22 0c0 2.056 1.828 3.731 4.072 3.731 2.244 0 4.072-1.675 4.072-3.73 0-2.074-1.828-3.75-4.072-3.75-2.244 0-4.072 1.676-4.072 3.75z" fill="#000"/></svg>