<svg width="32" height="30" fill="none" xmlns="http://www.w3.org/2000/svg"><path d="M29.8 17.937c.204-.938.33-1.936.33-2.934 0-7.602-6.448-13.75-14.405-13.75-1.046 0-2.084.113-3.074.314A8.033 8.033 0 007.86 0C3.522 0 0 3.362 0 7.502c0 1.721.61 3.302 1.635 4.568-.204.937-.33 1.935-.33 2.933 0 7.602 6.449 13.751 14.406 13.751 1.045 0 2.084-.114 3.073-.315A8.067 8.067 0 0023.57 30c4.336 0 7.859-3.362 7.859-7.502.007-1.714-.604-3.295-1.628-4.561zm-13.654 6.129c-4.603 0-8.456-1.956-8.456-4.354 0-1.072.632-2.05 2.07-2.05 2.19 0 2.393 3.008 6.182 3.008 1.804 0 2.968-.764 2.968-1.762 0-1.252-1.122-1.447-2.947-1.875-4.385-1.032-8.265-1.474-8.265-5.84 0-3.966 4.111-5.433 7.655-5.433 3.866 0 7.775 1.467 7.775 3.71 0 1.133-.8 2.13-2.127 2.13-1.985 0-2.048-2.243-5.262-2.243-1.804 0-2.947.469-2.947 1.507 0 1.326 1.46 1.46 4.848 2.21 2.905.623 6.365 1.795 6.365 5.198 0 3.958-4.007 5.794-7.86 5.794z" fill="#000"/></svg>