<svg width="28" height="20" fill="none" xmlns="http://www.w3.org/2000/svg"><path d="M26.807 1.356c.189-.781 0-1.356-.906-1.356h-3c-.764 0-1.115.494-1.303 1.044 0 0-1.528 4.568-3.687 7.531-.698.856-1.019 1.131-1.4 1.131-.19 0-.48-.275-.48-1.056V1.356C16.032.42 15.819 0 15.187 0H10.47c-.478 0-.764.438-.764.844 0 .887 1.08 1.094 1.192 3.594v5.425c0 1.187-.173 1.406-.555 1.406-1.018 0-3.493-4.588-4.96-9.838C5.088.413 4.797 0 4.028 0h-3C.174 0 0 .494 0 1.044c0 .975 1.019 5.818 4.741 12.219C7.221 17.63 10.715 20 13.893 20c1.91 0 2.144-.525 2.144-1.431 0-4.175-.174-4.569.784-4.569.443 0 1.207.275 2.99 2.381 2.036 2.5 2.372 3.619 3.513 3.619h3c.855 0 1.288-.525 1.038-1.563-.57-2.18-4.425-6.668-4.598-6.968-.443-.7-.316-1.013 0-1.638.005-.006 3.667-6.331 4.043-8.475z" fill="#000"/></svg>