<svg width="20" height="30" viewBox="0 0 20 30" fill="none" xmlns="http://www.w3.org/2000/svg">
<path d="M17.1988 19.5642C15.4473 20.5834 13.0373 20.9876 11.4455 21.1399L12.7816 22.3466L17.6591 26.8159C19.4426 28.4911 16.5404 31.1095 14.7377 29.4928C13.5167 28.3564 11.7268 26.7163 9.86015 25.0059L4.98261 29.4869C3.1799 31.0977 0.277667 28.456 2.08038 26.81C3.32054 25.6737 5.09128 24.0335 6.95792 22.3407L8.27479 21.134C6.70221 20.9818 4.25385 20.601 2.48311 19.5584C0.399126 18.3283 -0.515013 17.6078 0.290452 16.1024C0.763503 15.2472 2.0612 14.5267 3.7808 15.7685C3.7808 15.7685 6.10131 17.4614 9.84737 17.4614C13.5934 17.4614 15.9139 15.7685 15.9139 15.7685C17.6335 14.5326 18.9248 15.2472 19.4043 16.1024C20.197 17.6078 19.2828 18.3283 17.1988 19.5642ZM1.54979 7.59724C1.54979 3.39738 5.27667 0 9.84097 0C14.4053 0 18.1322 3.39738 18.1322 7.59724C18.1322 11.7795 14.4053 15.1769 9.84097 15.1769C5.27667 15.1769 1.54979 11.7795 1.54979 7.59724ZM5.7689 7.59724C5.7689 9.65324 7.59718 11.3285 9.84097 11.3285C12.0848 11.3285 13.913 9.65324 13.913 7.59724C13.913 5.52367 12.0848 3.84841 9.84097 3.84841C7.59718 3.84841 5.7689 5.52367 5.7689 7.59724Z" fill="black"/>
</svg>
