<svg width="32" height="30" viewBox="0 0 32 30" fill="none" xmlns="http://www.w3.org/2000/svg">
<path d="M29.8007 17.937C30.0041 16.9993 30.1305 16.0013 30.1305 15.0033C30.1305 7.40121 23.6819 1.25251 15.7248 1.25251C14.6793 1.25251 13.6408 1.36638 12.6514 1.56731C11.3182 0.58272 9.66223 0 7.8589 0C3.52247 0 0 3.36236 0 7.50167C0 9.22304 0.610468 10.8038 1.63493 12.0697C1.43144 13.0074 1.30514 14.0054 1.30514 15.0033C1.30514 22.6055 7.75364 28.7542 15.7108 28.7542C16.7563 28.7542 17.7948 28.6403 18.7842 28.4394C20.1174 29.4173 21.7734 30 23.5697 30C27.9061 30 31.4286 26.6376 31.4286 22.4983C31.4356 20.7837 30.8251 19.2029 29.8007 17.937ZM16.1458 24.0656C11.5428 24.0656 7.69049 22.1098 7.69049 19.712C7.69049 18.6403 8.32201 17.6624 9.76047 17.6624C11.9497 17.6624 12.1532 20.6698 15.9423 20.6698C17.7457 20.6698 18.9105 19.9062 18.9105 18.9082C18.9105 17.6557 17.7878 17.4615 15.9634 17.0328C11.5778 16.0013 7.69751 15.5593 7.69751 11.1922C7.69751 7.22706 11.8094 5.76021 15.3529 5.76021C19.2192 5.76021 23.1276 7.22706 23.1276 9.47086C23.1276 10.6028 22.3277 11.6008 21.0015 11.6008C19.0157 11.6008 18.9526 9.357 15.7388 9.357C13.9355 9.357 12.7918 9.82585 12.7918 10.864C12.7918 12.1902 14.2513 12.3242 17.6404 13.0743C20.5454 13.6973 24.0047 14.8694 24.0047 18.2719C24.0047 22.2304 19.9981 24.0656 16.1458 24.0656Z" fill="black"/>
</svg>
