<svg width="28" height="20" viewBox="0 0 28 20" fill="none" xmlns="http://www.w3.org/2000/svg">
<path d="M26.8074 1.35625C26.9958 0.575 26.8074 0 25.9009 0H22.9014C22.1375 0 21.7861 0.49375 21.5977 1.04375C21.5977 1.04375 20.0699 5.6125 17.9106 8.575C17.213 9.43125 16.8921 9.70625 16.5102 9.70625C16.3218 9.70625 16.0315 9.43125 16.0315 8.65V1.35625C16.0315 0.41875 15.8176 0 15.1861 0H10.4704C9.99167 0 9.70648 0.4375 9.70648 0.84375C9.70648 1.73125 10.7861 1.9375 10.8981 4.4375V9.8625C10.8981 11.05 10.725 11.2687 10.3431 11.2687C9.32454 11.2687 6.84954 6.68125 5.38287 1.43125C5.0875 0.4125 4.79722 0 4.02824 0H1.0287C0.173148 0 0 0.49375 0 1.04375C0 2.01875 1.01852 6.8625 4.7412 13.2625C7.2213 17.6313 10.7148 20 13.8926 20C15.8023 20 16.0366 19.475 16.0366 18.5688C16.0366 14.3938 15.8634 14 16.8208 14C17.2639 14 18.0278 14.275 19.8102 16.3813C21.8472 18.8813 22.1833 20 23.3241 20H26.3236C27.1792 20 27.612 19.475 27.3625 18.4375C26.7921 16.2563 22.937 11.7688 22.7639 11.4688C22.3208 10.7688 22.4481 10.4563 22.7639 9.83125C22.769 9.825 26.4306 3.5 26.8074 1.35625Z" fill="black"/>
</svg>
