<svg width="34" height="24" viewBox="0 0 34 24" fill="none" xmlns="http://www.w3.org/2000/svg">
<path d="M33.2995 3.75543C32.9077 2.28694 31.7593 1.12935 30.3029 0.73393C27.6423 0 16.9996 0 16.9996 0C16.9996 0 6.35737 0 3.69676 0.706104C2.2684 1.1011 1.09197 2.28715 0.700172 3.75543C0 6.43758 0 12 0 12C0 12 0 17.5905 0.700172 20.2446C1.09238 21.7129 2.24039 22.8704 3.69697 23.2659C6.38539 24 17 24 17 24C17 24 27.6423 24 30.3029 23.2939C31.7595 22.8987 32.9077 21.7411 33.2999 20.2728C33.9999 17.5905 33.9999 12.0282 33.9999 12.0282C33.9999 12.0282 34.0279 6.43758 33.2995 3.75543ZM13.6112 17.1388V6.86124L22.4611 12L13.6112 17.1388Z" fill="black"/>
</svg>
