<svg width="177" height="130" fill="none" xmlns="http://www.w3.org/2000/svg"><path d="M27.168 21.752c11.136 0 20.64 3.296 28.512 9.888 7.936 6.592 11.904 14.304 11.904 23.136 0 8.832-2.688 15.808-8.064 20.928-5.376 5.12-12.192 7.616-20.448 7.488a766.6 766.6 0 00-10.56-.096H24c-1.856 0-2.784-.704-2.784-2.112 0-.512.544-1.824 1.632-3.936 3.584-7.168 6.304-14.496 8.16-21.984-6.592 0-12.768-1.824-18.528-5.472-5.76-3.648-8.64-7.776-8.64-12.384 0-4.672 2.176-8.416 6.528-11.232 4.352-2.816 9.952-4.224 16.8-4.224zm-.384 3.936c-4.224 0-7.552.896-9.984 2.688-2.432 1.792-3.648 4.448-3.648 7.968 0 3.456 1.664 6.56 4.992 9.312 3.392 2.688 7.904 4.384 13.536 5.088 1.984-8.384 3.136-13.792 3.456-16.224l5.76.576c0 3.968-.832 9.216-2.496 15.744.512 0 3.488-.32 8.928-.96l.48 3.168c-1.28.448-4.832 1.12-10.656 2.016-2.496 8.064-5.088 15.04-7.776 20.928 6.4.512 11.712.768 15.936.768 4.288 0 7.68-1.568 10.176-4.704 2.496-3.2 3.744-7.488 3.744-12.864 0-9.28-3.168-17.184-9.504-23.712-6.336-6.528-13.984-9.792-22.944-9.792zm75.853 28.8c1.665 2.752 2.497 5.792 2.497 9.12 0 5.184-1.792 9.824-5.377 13.92-3.584 4.032-7.808 6.048-12.672 6.048-3.711 0-6.623-1.056-8.735-3.168-2.048-2.176-3.072-5.152-3.072-8.928 0-6.08 2.367-11.52 7.103-16.32 4.737-4.864 10.049-7.296 15.936-7.296 1.089 0 1.856.032 2.304.096l.288 3.168c-5.12 0-9.376 1.472-12.768 4.416-3.392 2.944-5.088 6.72-5.088 11.328 0 2.752.672 4.992 2.017 6.72 1.344 1.664 3.296 2.496 5.856 2.496 2.623 0 4.703-1.152 6.24-3.456 1.535-2.304 2.303-4.992 2.303-8.064 0-3.136-.607-5.984-1.823-8.544l4.991-1.536zm66.969 17.376l2.016 1.632c-1.088 2.688-2.816 4.96-5.184 6.816-2.304 1.856-4.416 2.784-6.336 2.784-1.856 0-3.328-.64-4.416-1.92-1.088-1.344-1.632-3.072-1.632-5.184s.352-4.832 1.056-8.16c-3.008 4.736-6.24 8.448-9.696 11.136-3.456 2.688-6.368 4.032-8.736 4.032-3.584 0-5.376-2.272-5.376-6.816 0-.448.448-3.2 1.344-8.256-3.008 4.672-6.048 8.192-9.12 10.56-3.008 2.304-5.728 3.456-8.16 3.456-3.584 0-5.376-2.272-5.376-6.816l3.648-3.456c0 1.152.416 2.144 1.248 2.976.896.832 1.92 1.248 3.072 1.248 2.112 0 4.96-1.792 8.544-5.376 3.648-3.584 6.976-8.288 9.984-14.112.64-1.28 1.376-2.784 2.208-4.512l1.92-3.84c.384-.768.832-1.6 1.344-2.496.832-1.408 1.696-2.112 2.592-2.112.896 0 1.632.352 2.208 1.056.576.704.864 1.536.864 2.496 0 .896-.288 1.952-.864 3.168-.512 1.216-1.376 2.88-2.592 4.992-1.216 2.048-2.176 3.744-2.88 5.088-1.664 4.352-2.496 7.328-2.496 8.928 0 1.6.416 2.816 1.248 3.648.896.832 1.92 1.248 3.072 1.248 2.176 0 4.768-1.664 7.776-4.992 3.072-3.392 6.24-8.416 9.504-15.072a99.88 99.88 0 011.344-2.784c.512-1.088.896-1.888 1.152-2.4.256-.576.544-1.216.864-1.92.384-.704.672-1.216.864-1.536.256-.384.512-.736.768-1.056.576-.576 1.216-.864 1.92-.864.768 0 1.44.352 2.016 1.056.576.704.864 1.536.864 2.496 0 .896-1.6 4.864-4.8 11.904-3.136 6.976-4.704 11.2-4.704 12.672 0 1.472.288 2.56.864 3.264.64.704 1.248 1.056 1.824 1.056.64 0 1.12-.032 1.44-.096.32-.064.64-.192.96-.384.32-.192.576-.352.768-.48.256-.128.544-.352.864-.672l.672-.672c.192-.192.448-.48.768-.864.384-.448.64-.736.768-.864z" fill="#2FB0C6"/><path d="M13.84 124v-12.68h4.945c1.688 0 2.98.297 3.88.891.905.586 1.358 1.449 1.358 2.59a2.62 2.62 0 01-.527 1.594c-.351.468-.871.828-1.558 1.078.765.179 1.378.531 1.84 1.054a2.72 2.72 0 01.703 1.875c0 1.164-.43 2.055-1.29 2.672-.851.617-2.058.926-3.62.926H13.84zm2.168-5.566v3.82h3.586c.906 0 1.582-.168 2.027-.504.453-.336.68-.809.68-1.418 0-1.266-.93-1.898-2.79-1.898h-3.503zm0-1.735h2.8c2.032 0 3.047-.594 3.047-1.781 0-1.188-.96-1.801-2.882-1.84h-2.965v3.621zM36.38 124c-.125-.25-.227-.695-.305-1.336-1.008 1.047-2.21 1.57-3.61 1.57-1.25 0-2.277-.351-3.081-1.054-.797-.711-1.196-1.61-1.196-2.696 0-1.32.5-2.343 1.5-3.07 1.008-.734 2.422-1.102 4.243-1.102h2.109v-.996c0-.757-.227-1.359-.68-1.804-.453-.453-1.12-.68-2.004-.68-.773 0-1.422.195-1.945.586-.524.391-.785.863-.785 1.418h-2.18c0-.633.223-1.242.668-1.828.453-.594 1.063-1.063 1.828-1.406.774-.344 1.621-.516 2.543-.516 1.461 0 2.606.367 3.434 1.102.828.726 1.258 1.73 1.289 3.011v5.836c0 1.164.148 2.09.445 2.777V124H36.38zm-3.598-1.652c.68 0 1.324-.176 1.934-.528.609-.351 1.05-.808 1.324-1.371v-2.601h-1.7c-2.656 0-3.984.777-3.984 2.332 0 .679.227 1.211.68 1.593.453.383 1.035.575 1.746.575zm12.391-11.028v10.91h4.641v-10.91h2.168v10.91h4.629v-10.91h2.18V124H42.994v-12.68h2.18zm23.501 12.914c-1.719 0-3.117-.562-4.195-1.687-1.078-1.133-1.617-2.645-1.617-4.535v-.399c0-1.258.238-2.379.715-3.363.484-.992 1.156-1.766 2.015-2.32a5.067 5.067 0 012.813-.844c1.648 0 2.93.543 3.843 1.629.914 1.086 1.371 2.64 1.371 4.664v.902h-8.59c.032 1.25.395 2.262 1.09 3.035.704.766 1.594 1.149 2.672 1.149.766 0 1.415-.156 1.946-.469a4.873 4.873 0 001.394-1.242l1.325 1.031c-1.063 1.633-2.657 2.449-4.782 2.449zm-.27-11.367c-.874 0-1.609.321-2.202.961-.594.633-.961 1.524-1.102 2.672h6.352v-.164c-.063-1.102-.36-1.953-.891-2.555-.531-.609-1.25-.914-2.156-.914zm17.138-1.547h2.168V124h-2.168v-9.246L79.695 124h-2.168v-12.68h2.168v9.258l5.847-9.258zm.586-4.617c0 .945-.324 1.707-.972 2.285-.641.571-1.485.856-2.532.856s-1.894-.289-2.543-.867c-.648-.579-.972-1.336-.972-2.274h1.77c0 .547.148.977.444 1.289.297.305.73.457 1.301.457.547 0 .973-.152 1.278-.457.312-.304.468-.734.468-1.289h1.758zm20.717 14.426l4.312-9.809h2.707V124h-2.168v-9.223L107.595 124h-1.5l-4.184-9.422V124h-2.168v-12.68h2.812l4.29 9.809zm16.973 3.105c-1.719 0-3.117-.562-4.195-1.687-1.078-1.133-1.618-2.645-1.618-4.535v-.399c0-1.258.239-2.379.715-3.363.485-.992 1.157-1.766 2.016-2.32a5.067 5.067 0 012.812-.844c1.649 0 2.93.543 3.844 1.629.914 1.086 1.371 2.64 1.371 4.664v.902h-8.59c.032 1.25.395 2.262 1.09 3.035.703.766 1.594 1.149 2.672 1.149.766 0 1.414-.156 1.945-.469a4.86 4.86 0 001.395-1.242l1.324 1.031c-1.062 1.633-2.656 2.449-4.781 2.449zm-.27-11.367c-.875 0-1.609.321-2.203.961-.593.633-.961 1.524-1.101 2.672h6.351v-.164c-.062-1.102-.359-1.953-.89-2.555-.532-.609-1.25-.914-2.157-.914zM142.057 124h-2.18v-4.594c-.953.25-1.929.375-2.929.375-1.586 0-2.797-.406-3.633-1.219-.828-.812-1.25-1.968-1.266-3.468v-3.785h2.168v3.855c.039 1.891.949 2.836 2.731 2.836 1 0 1.976-.125 2.929-.375v-6.305h2.18V124zm14.102-10.922h-4.254V124h-2.167v-10.922h-4.172v-1.758h10.593v1.758zm5.677 2.613h3.293c1.437.016 2.574.391 3.41 1.125.836.735 1.254 1.731 1.254 2.989 0 1.265-.43 2.281-1.289 3.047-.859.765-2.016 1.148-3.469 1.148h-5.367v-12.68h2.168v4.371zm12.48 8.309h-2.179v-12.68h2.179V124zm-12.48-6.539v4.769h3.223c.812 0 1.441-.207 1.886-.621.446-.421.668-.996.668-1.722 0-.703-.218-1.278-.656-1.723-.43-.453-1.035-.687-1.816-.703h-3.305z" fill="#E0E0E0"/><path stroke="#BDBDBD" d="M21 99.5h147"/></svg>