<svg width="84" height="64" fill="none" xmlns="http://www.w3.org/2000/svg"><path d="M10.188 15.032c4.176 0 7.74 1.236 10.692 3.708 2.976 2.472 4.464 5.364 4.464 8.676 0 3.312-1.008 5.928-3.024 7.848s-4.572 2.856-7.668 2.808a287.475 287.475 0 00-3.96-.036H9c-.696 0-1.044-.264-1.044-.792 0-.192.204-.684.612-1.476a39.818 39.818 0 003.06-8.244c-2.472 0-4.788-.684-6.948-2.052-2.16-1.368-3.24-2.916-3.24-4.644 0-1.752.816-3.156 2.448-4.212 1.632-1.056 3.732-1.584 6.3-1.584zm-.144 1.476c-1.584 0-2.832.336-3.744 1.008-.912.672-1.368 1.668-1.368 2.988 0 1.296.624 2.46 1.872 3.492 1.272 1.008 2.964 1.644 5.076 1.908.744-3.144 1.176-5.172 1.296-6.084l2.16.216c0 1.488-.312 3.456-.936 5.904.192 0 1.308-.12 3.348-.36l.18 1.188c-.48.168-1.812.42-3.996.756-.936 3.024-1.908 5.64-2.916 7.848 2.4.192 4.392.288 5.976.288 1.608 0 2.88-.588 3.816-1.764.936-1.2 1.404-2.808 1.404-4.824 0-3.48-1.188-6.444-3.564-8.892-2.376-2.448-5.244-3.672-8.604-3.672zm32.105 7.236c.832 1.376 1.248 2.896 1.248 4.56 0 2.592-.896 4.912-2.688 6.96-1.792 2.016-3.904 3.024-6.336 3.024-1.856 0-3.312-.528-4.368-1.584-1.024-1.088-1.536-2.576-1.536-4.464 0-3.04 1.184-5.76 3.552-8.16 2.368-2.432 5.024-3.648 7.968-3.648.544 0 .928.016 1.152.048l.144 1.584c-2.56 0-4.688.736-6.384 2.208-1.696 1.472-2.544 3.36-2.544 5.664 0 1.376.336 2.496 1.008 3.36.672.832 1.648 1.248 2.928 1.248 1.312 0 2.352-.576 3.12-1.728.768-1.152 1.152-2.496 1.152-4.032 0-1.568-.304-2.992-.912-4.272l2.496-.768zm33.484 8.688l1.008.816c-.544 1.344-1.408 2.48-2.592 3.408-1.152.928-2.208 1.392-3.168 1.392-.928 0-1.664-.32-2.208-.96-.544-.672-.816-1.536-.816-2.592s.176-2.416.528-4.08c-1.504 2.368-3.12 4.224-4.848 5.568C61.81 37.328 60.353 38 59.17 38c-1.792 0-2.688-1.136-2.688-3.408 0-.224.224-1.6.672-4.128-1.504 2.336-3.024 4.096-4.56 5.28-1.504 1.152-2.864 1.728-4.08 1.728-1.792 0-2.688-1.136-2.688-3.408l1.824-1.728c0 .576.208 1.072.624 1.488.448.416.96.624 1.536.624 1.056 0 2.48-.896 4.272-2.688 1.824-1.792 3.488-4.144 4.992-7.056.32-.64.688-1.392 1.104-2.256l.96-1.92c.192-.384.416-.8.672-1.248.416-.704.848-1.056 1.296-1.056.448 0 .816.176 1.104.528.288.352.432.768.432 1.248 0 .448-.144.976-.432 1.584-.256.608-.688 1.44-1.296 2.496a56.972 56.972 0 00-1.44 2.544c-.832 2.176-1.248 3.664-1.248 4.464 0 .8.208 1.408.624 1.824.448.416.96.624 1.536.624 1.088 0 2.384-.832 3.888-2.496 1.536-1.696 3.12-4.208 4.752-7.536.192-.416.416-.88.672-1.392.256-.544.448-.944.576-1.2.128-.288.272-.608.432-.96.192-.352.336-.608.432-.768.128-.192.256-.368.384-.528.288-.288.608-.432.96-.432.384 0 .72.176 1.008.528.288.352.432.768.432 1.248 0 .448-.8 2.432-2.4 5.952-1.568 3.488-2.352 5.6-2.352 6.336 0 .736.144 1.28.432 1.632.32.352.624.528.912.528.32 0 .56-.016.72-.048.16-.032.32-.096.48-.192.16-.096.288-.176.384-.24.128-.064.272-.176.432-.336l.336-.336c.096-.096.224-.24.384-.432a9.74 9.74 0 01.384-.432z" fill="#2FB0C6"/><path d="M.908 61v-6.868h2.786c.94 0 1.655.165 2.146.495.49.326.736.795.736 1.41 0 .316-.1.602-.298.856-.195.25-.485.442-.87.578.449.093.804.281 1.067.565.262.283.393.617.393 1.003 0 .639-.237 1.125-.71 1.46-.47.334-1.148.501-2.032.501H.908zm1.542-2.926v1.707h1.69c.791 0 1.187-.283 1.187-.85 0-.572-.402-.857-1.206-.857H2.45zm0-1.105h1.27c.876 0 1.314-.258 1.314-.774 0-.542-.415-.821-1.244-.838H2.45v1.612zM12.308 61c-.068-.131-.127-.345-.178-.641a2.401 2.401 0 01-1.802.768c-.69 0-1.253-.197-1.689-.59a1.889 1.889 0 01-.654-1.46c0-.732.271-1.293.813-1.682.546-.394 1.324-.59 2.336-.59h.946v-.452c0-.355-.1-.639-.299-.85-.199-.216-.501-.324-.908-.324-.35 0-.638.09-.863.267a.807.807 0 00-.336.666H8.13c0-.376.125-.728.375-1.053a2.49 2.49 0 011.015-.775c.432-.186.912-.28 1.441-.28.804 0 1.446.204 1.924.61.478.402.723.97.736 1.701v3.098c0 .618.087 1.11.26 1.48V61h-1.574zm-1.695-1.11c.305 0 .59-.075.857-.223a1.48 1.48 0 00.61-.597v-1.295h-.832c-.571 0-1 .1-1.289.299-.287.199-.431.48-.431.844 0 .296.097.533.292.71.199.174.463.261.793.261zm6.227-5.758v5.637h2.146v-5.637h1.542v5.637h2.152v-5.637h1.536V61h-8.918v-6.868h1.542zm12.074 6.995c-.978 0-1.771-.307-2.38-.92-.606-.618-.909-1.44-.909-2.463v-.19c0-.686.132-1.298.394-1.835a3.036 3.036 0 011.117-1.263 2.95 2.95 0 011.6-.451c.935 0 1.657.298 2.164.895.512.597.769 1.44.769 2.533v.622H27.18c.046.567.235 1.015.565 1.345.334.33.753.495 1.256.495.707 0 1.283-.285 1.727-.856l.832.793c-.276.41-.644.73-1.105.959a3.455 3.455 0 01-1.542.336zm-.184-5.884c-.424 0-.767.148-1.029.444-.258.296-.423.709-.495 1.238h2.939v-.114c-.034-.517-.171-.906-.413-1.168-.24-.267-.575-.4-1.002-.4zm8.43-1.111h1.535V61H37.16v-4.583L34.468 61h-1.536v-6.868h1.536v4.583l2.691-4.583zm.723-2.634c0 .533-.186.964-.559 1.294-.372.33-.87.496-1.491.496-.623 0-1.12-.165-1.492-.495-.373-.33-.559-.762-.559-1.295h1.156c0 .279.078.497.234.653.161.153.381.229.66.229.28 0 .498-.076.654-.229.157-.156.235-.374.235-.653h1.162zm9.769 7.604l2.031-4.97h1.93V61H50.07v-4.545L48.18 61h-1.05l-1.898-4.57V61H43.69v-6.868h1.942l2.019 4.97zm8.721 2.025c-.977 0-1.77-.307-2.38-.92-.605-.618-.908-1.44-.908-2.463v-.19c0-.686.132-1.298.394-1.835a3.036 3.036 0 011.117-1.263 2.95 2.95 0 011.6-.451c.935 0 1.657.298 2.164.895.512.597.768 1.44.768 2.533v.622h-4.487c.046.567.235 1.015.565 1.345.334.33.753.495 1.256.495.707 0 1.283-.285 1.727-.856l.831.793c-.275.41-.643.73-1.104.959a3.455 3.455 0 01-1.542.336zm-.183-5.884c-.424 0-.767.148-1.029.444-.258.296-.423.709-.495 1.238h2.939v-.114c-.034-.517-.171-.906-.413-1.168-.24-.267-.575-.4-1.002-.4zM65.838 61h-1.543v-2.291a5.5 5.5 0 01-1.256.14c-.94 0-1.657-.225-2.152-.674-.495-.453-.743-1.1-.743-1.942v-2.107h1.543v2.107c0 .5.11.853.33 1.06.224.207.564.311 1.022.311.414 0 .833-.049 1.256-.146v-3.326h1.543V61zm7.046-5.643h-2.228V61h-1.543v-5.643h-2.202v-1.225h5.973v1.225zm2.691.958h1.51c.564 0 1.055.098 1.474.292.419.195.736.468.952.82.22.35.33.759.33 1.224 0 .707-.25 1.274-.75 1.701-.499.428-1.163.644-1.992.648h-3.066v-6.868h1.542v2.183zM82.525 61h-1.542v-6.868h1.543V61zm-6.95-3.447v2.216h1.505c.376 0 .672-.093.888-.28.22-.19.33-.459.33-.806 0-.347-.108-.62-.323-.819-.212-.203-.5-.306-.864-.31h-1.536z" fill="#E0E0E0"/><path stroke="#BDBDBD" d="M8 45.5h67"/></svg>