<svg width="18" height="18" viewBox="0 0 18 18" fill="none" xmlns="http://www.w3.org/2000/svg">
<g clip-path="url(#clip0)">
<path d="M17.214 1.17166C16.4017 0.734291 15.4957 1.57778 14.9646 2.07763C13.7463 3.26477 12.7154 4.63934 11.5594 5.88896C10.2786 7.26354 9.09145 8.63812 7.77935 9.98151C7.02958 10.7313 6.21733 11.5435 5.71748 12.4807C4.59282 11.3873 3.62437 10.2001 2.37475 9.23174C1.46878 8.54445 -0.03076 8.0446 0.000480451 9.70035C0.0629613 11.856 1.96863 14.1678 3.37445 15.636C3.96802 16.2608 4.74903 16.9169 5.655 16.9481C6.74841 17.0106 7.87307 15.6985 8.52912 14.98C9.68507 13.7304 10.6223 12.3245 11.6844 11.0437C13.059 9.3567 14.4648 7.70091 15.8081 5.98268C16.6516 4.92051 19.3071 2.29626 17.214 1.17166ZM1.37501 9.57538C1.34377 9.57538 1.31253 9.57538 1.25005 9.60657C1.12509 9.57538 1.03136 9.54409 0.906402 9.48161C1.00012 9.41913 1.15633 9.45037 1.37501 9.57538Z" fill="black"/>
</g>
<defs>
<clipPath id="clip0">
<rect width="18" height="18" fill="white"/>
</clipPath>
</defs>
</svg>
