<svg width="50" height="50" viewBox="0 0 50 50" fill="none" xmlns="http://www.w3.org/2000/svg">
<path d="M47.5806 3.22581H40.3226V0H10.15L0 10.15V50H40.3226V19.3548H47.5806C48.9145 19.3548 50 18.2694 50 16.9355V5.64516C50 4.31129 48.9145 3.22581 47.5806 3.22581ZM9.67742 2.75323V9.67742H2.75323L9.67742 2.75323ZM38.7097 48.3871H1.6129V11.2903H11.2903V1.6129H38.7097V3.22581H18.5484C17.2145 3.22581 16.129 4.31129 16.129 5.64516V16.9355C16.129 18.2694 17.2145 19.3548 18.5484 19.3548H38.7097V48.3871ZM48.3871 16.9355C48.3871 17.3798 48.025 17.7419 47.5806 17.7419H18.5484C18.104 17.7419 17.7419 17.3798 17.7419 16.9355V5.64516C17.7419 5.20081 18.104 4.83871 18.5484 4.83871H47.5806C48.025 4.83871 48.3871 5.20081 48.3871 5.64516V16.9355Z" fill="#1C5870"/>
<path d="M24.5974 6.45161H19.3555V11.2903V12.0968V16.129H20.9684V12.0968H24.5974C26.1539 12.0968 27.42 10.8306 27.42 9.27419C27.42 7.71774 26.1539 6.45161 24.5974 6.45161ZM24.5974 10.4839H20.9684V8.06452H24.5974C25.2643 8.06452 25.8071 8.60726 25.8071 9.27419C25.8071 9.94113 25.2643 10.4839 24.5974 10.4839Z" fill="#1C5870"/>
<path d="M4.83849 12.9032H3.22559V14.5161H4.83849V12.9032Z" fill="#1C5870"/>
<path d="M8.06505 12.9032H6.45215V14.5161H8.06505V12.9032Z" fill="#1C5870"/>
<path d="M4.83849 16.129H3.22559V17.7419H4.83849V16.129Z" fill="#1C5870"/>
<path d="M32.258 6.45161H29.0322V16.129H32.258C34.9266 16.129 37.0967 13.9589 37.0967 11.2903C37.0967 8.62178 34.9266 6.45161 32.258 6.45161ZM32.258 14.5161H30.6451V8.06452H32.258C34.0371 8.06452 35.4838 9.51129 35.4838 11.2903C35.4838 13.0694 34.0371 14.5161 32.258 14.5161Z" fill="#1C5870"/>
<path d="M38.71 16.129H40.3229V12.0968H45.1616V10.4839H40.3229V8.06452H46.7745V6.45161H38.71V16.129Z" fill="#1C5870"/>
<path d="M16.1292 24.9258V25.6589C16.1292 26.4427 16.359 27.2024 16.7937 27.854L19.1921 31.4516L14.3534 38.7097H8.79693C6.61467 38.7097 4.83887 40.4855 4.83887 42.6677V42.8161C4.83887 44.9984 6.61467 46.7742 8.79693 46.7742C10.1235 46.7742 11.355 46.1153 12.0905 45.0113L15.2171 40.3226H25.1066L28.2324 45.0113C28.9679 46.1153 30.1994 46.7742 31.526 46.7742C33.7082 46.7742 35.484 44.9984 35.484 42.8161V42.6677C35.484 40.4855 33.7082 38.7097 31.526 38.7097H25.9695L21.1308 31.4516L23.5292 27.854C23.9639 27.2016 24.1937 26.4427 24.1937 25.6589V24.9258C24.1937 22.7436 22.4179 20.9677 20.2356 20.9677H20.0873C17.905 20.9677 16.1292 22.7436 16.1292 24.9258ZM10.7485 44.1169C10.3131 44.771 9.58322 45.1613 8.79693 45.1613C7.50419 45.1613 6.45177 44.1089 6.45177 42.8161V42.6677C6.45177 41.375 7.50419 40.3226 8.79693 40.3226H13.2784L10.7485 44.1169ZM31.526 40.3226C32.8187 40.3226 33.8711 41.375 33.8711 42.6677V42.8161C33.8711 44.1089 32.8187 45.1613 31.526 45.1613C30.7397 45.1613 30.0106 44.771 29.5744 44.1169L27.0445 40.3226H31.526ZM24.0308 38.7097H16.2913L20.1614 32.9056L24.0308 38.7097ZM17.7421 24.9258C17.7421 23.6331 18.7945 22.5806 20.0873 22.5806H20.2356C21.5284 22.5806 22.5808 23.6331 22.5808 24.9258V25.6589C22.5808 26.1234 22.4445 26.5734 22.1873 26.9597L20.1614 29.9976L18.1356 26.9589C17.8784 26.5734 17.7421 26.1234 17.7421 25.6589V24.9258Z" fill="#1C5870"/>
<path d="M20.9684 41.9355H19.3555V43.5484H20.9684V41.9355Z" fill="#1C5870"/>
<path d="M24.194 41.9355H22.5811V43.5484H24.194V41.9355Z" fill="#1C5870"/>
<path d="M17.7418 41.9355H16.1289V43.5484H17.7418V41.9355Z" fill="#1C5870"/>
</svg>
