<svg width="177" height="130" viewBox="0 0 177 130" fill="none" xmlns="http://www.w3.org/2000/svg">
<path d="M27.168 21.752C38.304 21.752 47.808 25.048 55.68 31.64C63.616 38.232 67.584 45.944 67.584 54.776C67.584 63.608 64.896 70.584 59.52 75.704C54.144 80.824 47.328 83.32 39.072 83.192C34.656 83.128 31.136 83.096 28.512 83.096H24C22.144 83.096 21.216 82.392 21.216 80.984C21.216 80.472 21.76 79.16 22.848 77.048C26.432 69.88 29.152 62.552 31.008 55.064C24.416 55.064 18.24 53.24 12.48 49.592C6.72 45.944 3.84 41.816 3.84 37.208C3.84 32.536 6.016 28.792 10.368 25.976C14.72 23.16 20.32 21.752 27.168 21.752ZM26.784 25.688C22.56 25.688 19.232 26.584 16.8 28.376C14.368 30.168 13.152 32.824 13.152 36.344C13.152 39.8 14.816 42.904 18.144 45.656C21.536 48.344 26.048 50.04 31.68 50.744C33.664 42.36 34.816 36.952 35.136 34.52L40.896 35.096C40.896 39.064 40.064 44.312 38.4 50.84C38.912 50.84 41.888 50.52 47.328 49.88L47.808 53.048C46.528 53.496 42.976 54.168 37.152 55.064C34.656 63.128 32.064 70.104 29.376 75.992C35.776 76.504 41.088 76.76 45.312 76.76C49.6 76.76 52.992 75.192 55.488 72.056C57.984 68.856 59.232 64.568 59.232 59.192C59.232 49.912 56.064 42.008 49.728 35.48C43.392 28.952 35.744 25.688 26.784 25.688ZM102.637 54.488C104.302 57.24 105.134 60.28 105.134 63.608C105.134 68.792 103.342 73.432 99.7575 77.528C96.1735 81.56 91.9495 83.576 87.0855 83.576C83.3735 83.576 80.4615 82.52 78.3495 80.408C76.3015 78.232 75.2775 75.256 75.2775 71.48C75.2775 65.4 77.6455 59.96 82.3815 55.16C87.1175 50.296 92.4295 47.864 98.3175 47.864C99.4055 47.864 100.173 47.896 100.621 47.96L100.909 51.128C95.7895 51.128 91.5335 52.6 88.1415 55.544C84.7495 58.488 83.0535 62.264 83.0535 66.872C83.0535 69.624 83.7255 71.864 85.0695 73.592C86.4135 75.256 88.3655 76.088 90.9255 76.088C93.5495 76.088 95.6295 74.936 97.1655 72.632C98.7015 70.328 99.4695 67.64 99.4695 64.568C99.4695 61.432 98.8615 58.584 97.6455 56.024L102.637 54.488ZM169.606 71.864L171.622 73.496C170.534 76.184 168.806 78.456 166.438 80.312C164.134 82.168 162.022 83.096 160.102 83.096C158.246 83.096 156.774 82.456 155.686 81.176C154.598 79.832 154.054 78.104 154.054 75.992C154.054 73.88 154.406 71.16 155.11 67.832C152.102 72.568 148.87 76.28 145.414 78.968C141.958 81.656 139.046 83 136.678 83C133.094 83 131.302 80.728 131.302 76.184C131.302 75.736 131.75 72.984 132.646 67.928C129.638 72.6 126.598 76.12 123.526 78.488C120.518 80.792 117.798 81.944 115.366 81.944C111.782 81.944 109.99 79.672 109.99 75.128L113.638 71.672C113.638 72.824 114.054 73.816 114.886 74.648C115.782 75.48 116.806 75.896 117.958 75.896C120.07 75.896 122.918 74.104 126.502 70.52C130.15 66.936 133.478 62.232 136.486 56.408C137.126 55.128 137.862 53.624 138.694 51.896C139.59 50.104 140.23 48.824 140.614 48.056C140.998 47.288 141.446 46.456 141.958 45.56C142.79 44.152 143.654 43.448 144.55 43.448C145.446 43.448 146.182 43.8 146.758 44.504C147.334 45.208 147.622 46.04 147.622 47C147.622 47.896 147.334 48.952 146.758 50.168C146.246 51.384 145.382 53.048 144.166 55.16C142.95 57.208 141.99 58.904 141.286 60.248C139.622 64.6 138.79 67.576 138.79 69.176C138.79 70.776 139.206 71.992 140.038 72.824C140.934 73.656 141.958 74.072 143.11 74.072C145.286 74.072 147.878 72.408 150.886 69.08C153.958 65.688 157.126 60.664 160.39 54.008C160.774 53.176 161.222 52.248 161.734 51.224C162.246 50.136 162.63 49.336 162.886 48.824C163.142 48.248 163.43 47.608 163.75 46.904C164.134 46.2 164.422 45.688 164.614 45.368C164.87 44.984 165.126 44.632 165.382 44.312C165.958 43.736 166.598 43.448 167.302 43.448C168.07 43.448 168.742 43.8 169.318 44.504C169.894 45.208 170.182 46.04 170.182 47C170.182 47.896 168.582 51.864 165.382 58.904C162.246 65.88 160.678 70.104 160.678 71.576C160.678 73.048 160.966 74.136 161.542 74.84C162.182 75.544 162.79 75.896 163.366 75.896C164.006 75.896 164.486 75.864 164.806 75.8C165.126 75.736 165.446 75.608 165.766 75.416C166.086 75.224 166.342 75.064 166.534 74.936C166.79 74.808 167.078 74.584 167.398 74.264L168.07 73.592C168.262 73.4 168.518 73.112 168.838 72.728C169.222 72.28 169.478 71.992 169.606 71.864Z" fill="#2FB0C6"/>
<path d="M13.8398 124V111.32H18.7852C20.4727 111.32 21.7656 111.617 22.6641 112.211C23.5703 112.797 24.0234 113.66 24.0234 114.801C24.0234 115.387 23.8477 115.918 23.4961 116.395C23.1445 116.863 22.625 117.223 21.9375 117.473C22.7031 117.652 23.3164 118.004 23.7773 118.527C24.2461 119.051 24.4805 119.676 24.4805 120.402C24.4805 121.566 24.0508 122.457 23.1914 123.074C22.3398 123.691 21.1328 124 19.5703 124H13.8398ZM16.0078 118.434V122.254H19.5938C20.5 122.254 21.1758 122.086 21.6211 121.75C22.0742 121.414 22.3008 120.941 22.3008 120.332C22.3008 119.066 21.3711 118.434 19.5117 118.434H16.0078ZM16.0078 116.699H18.8086C20.8398 116.699 21.8555 116.105 21.8555 114.918C21.8555 113.73 20.8945 113.117 18.9727 113.078H16.0078V116.699ZM36.3797 124C36.2547 123.75 36.1531 123.305 36.075 122.664C35.0672 123.711 33.8641 124.234 32.4656 124.234C31.2156 124.234 30.1883 123.883 29.3836 123.18C28.5867 122.469 28.1883 121.57 28.1883 120.484C28.1883 119.164 28.6883 118.141 29.6883 117.414C30.6961 116.68 32.1102 116.312 33.9305 116.312H36.0398V115.316C36.0398 114.559 35.8133 113.957 35.3602 113.512C34.907 113.059 34.2391 112.832 33.3562 112.832C32.5828 112.832 31.9344 113.027 31.4109 113.418C30.8875 113.809 30.6258 114.281 30.6258 114.836H28.4461C28.4461 114.203 28.6687 113.594 29.1141 113.008C29.5672 112.414 30.1766 111.945 30.9422 111.602C31.7156 111.258 32.5633 111.086 33.4852 111.086C34.9461 111.086 36.0906 111.453 36.9187 112.188C37.7469 112.914 38.1766 113.918 38.2078 115.199V121.035C38.2078 122.199 38.3562 123.125 38.6531 123.812V124H36.3797ZM32.782 122.348C33.4617 122.348 34.1062 122.172 34.7156 121.82C35.325 121.469 35.7664 121.012 36.0398 120.449V117.848H34.3406C31.6844 117.848 30.3562 118.625 30.3562 120.18C30.3562 120.859 30.5828 121.391 31.0359 121.773C31.4891 122.156 32.0711 122.348 32.782 122.348ZM45.1734 111.32V122.23H49.8141V111.32H51.982V122.23H56.6109V111.32H58.7906V124H42.9937V111.32H45.1734ZM68.6742 124.234C66.9555 124.234 65.557 123.672 64.4789 122.547C63.4008 121.414 62.8617 119.902 62.8617 118.012V117.613C62.8617 116.355 63.1 115.234 63.5766 114.25C64.0609 113.258 64.7328 112.484 65.5922 111.93C66.4594 111.367 67.3969 111.086 68.4047 111.086C70.0531 111.086 71.3344 111.629 72.2484 112.715C73.1625 113.801 73.6195 115.355 73.6195 117.379V118.281H65.0297C65.0609 119.531 65.4242 120.543 66.1195 121.316C66.8227 122.082 67.7133 122.465 68.7914 122.465C69.557 122.465 70.2055 122.309 70.7367 121.996C71.268 121.684 71.7328 121.27 72.1312 120.754L73.4555 121.785C72.393 123.418 70.7992 124.234 68.6742 124.234ZM68.4047 112.867C67.5297 112.867 66.7953 113.188 66.2016 113.828C65.6078 114.461 65.2406 115.352 65.1 116.5H71.4516V116.336C71.3891 115.234 71.0922 114.383 70.5609 113.781C70.0297 113.172 69.3109 112.867 68.4047 112.867ZM85.5422 111.32H87.7102V124H85.5422V114.754L79.6945 124H77.5266V111.32H79.6945V120.578L85.5422 111.32ZM86.1281 106.703C86.1281 107.648 85.8039 108.41 85.1555 108.988C84.5148 109.559 83.6711 109.844 82.6242 109.844C81.5773 109.844 80.7297 109.555 80.0812 108.977C79.4328 108.398 79.1086 107.641 79.1086 106.703H80.8781C80.8781 107.25 81.0266 107.68 81.3234 107.992C81.6203 108.297 82.0539 108.449 82.6242 108.449C83.1711 108.449 83.5969 108.297 83.9016 107.992C84.2141 107.688 84.3703 107.258 84.3703 106.703H86.1281ZM106.845 121.129L111.157 111.32H113.864V124H111.696V114.777L107.595 124H106.095L101.911 114.578V124H99.743V111.32H102.555L106.845 121.129ZM123.818 124.234C122.099 124.234 120.701 123.672 119.623 122.547C118.545 121.414 118.005 119.902 118.005 118.012V117.613C118.005 116.355 118.244 115.234 118.72 114.25C119.205 113.258 119.877 112.484 120.736 111.93C121.603 111.367 122.541 111.086 123.548 111.086C125.197 111.086 126.478 111.629 127.392 112.715C128.306 113.801 128.763 115.355 128.763 117.379V118.281H120.173C120.205 119.531 120.568 120.543 121.263 121.316C121.966 122.082 122.857 122.465 123.935 122.465C124.701 122.465 125.349 122.309 125.88 121.996C126.412 121.684 126.877 121.27 127.275 120.754L128.599 121.785C127.537 123.418 125.943 124.234 123.818 124.234ZM123.548 112.867C122.673 112.867 121.939 113.188 121.345 113.828C120.752 114.461 120.384 115.352 120.244 116.5H126.595V116.336C126.533 115.234 126.236 114.383 125.705 113.781C125.173 113.172 124.455 112.867 123.548 112.867ZM142.057 124H139.877V119.406C138.924 119.656 137.948 119.781 136.948 119.781C135.362 119.781 134.151 119.375 133.315 118.562C132.487 117.75 132.065 116.594 132.049 115.094V111.309H134.217V115.164C134.256 117.055 135.166 118 136.948 118C137.948 118 138.924 117.875 139.877 117.625V111.32H142.057V124ZM156.159 113.078H151.905V124H149.738V113.078H145.566V111.32H156.159V113.078ZM161.836 115.691H165.129C166.566 115.707 167.703 116.082 168.539 116.816C169.375 117.551 169.793 118.547 169.793 119.805C169.793 121.07 169.363 122.086 168.504 122.852C167.645 123.617 166.488 124 165.035 124H159.668V111.32H161.836V115.691ZM174.316 124H172.137V111.32H174.316V124ZM161.836 117.461V122.23H165.059C165.871 122.23 166.5 122.023 166.945 121.609C167.391 121.188 167.613 120.613 167.613 119.887C167.613 119.184 167.395 118.609 166.957 118.164C166.527 117.711 165.922 117.477 165.141 117.461H161.836Z" fill="#E0E0E0"/>
<line x1="21" y1="99.5" x2="168" y2="99.5" stroke="#BDBDBD"/>
</svg>
