<svg width="84" height="64" viewBox="0 0 84 64" fill="none" xmlns="http://www.w3.org/2000/svg">
<path d="M10.188 15.032C14.364 15.032 17.928 16.268 20.88 18.74C23.856 21.212 25.344 24.104 25.344 27.416C25.344 30.728 24.336 33.344 22.32 35.264C20.304 37.184 17.748 38.12 14.652 38.072C12.996 38.048 11.676 38.036 10.692 38.036H9C8.304 38.036 7.956 37.772 7.956 37.244C7.956 37.052 8.16 36.56 8.568 35.768C9.912 33.08 10.932 30.332 11.628 27.524C9.156 27.524 6.84 26.84 4.68 25.472C2.52 24.104 1.44 22.556 1.44 20.828C1.44 19.076 2.256 17.672 3.888 16.616C5.52 15.56 7.62 15.032 10.188 15.032ZM10.044 16.508C8.46 16.508 7.212 16.844 6.3 17.516C5.388 18.188 4.932 19.184 4.932 20.504C4.932 21.8 5.556 22.964 6.804 23.996C8.076 25.004 9.768 25.64 11.88 25.904C12.624 22.76 13.056 20.732 13.176 19.82L15.336 20.036C15.336 21.524 15.024 23.492 14.4 25.94C14.592 25.94 15.708 25.82 17.748 25.58L17.928 26.768C17.448 26.936 16.116 27.188 13.932 27.524C12.996 30.548 12.024 33.164 11.016 35.372C13.416 35.564 15.408 35.66 16.992 35.66C18.6 35.66 19.872 35.072 20.808 33.896C21.744 32.696 22.212 31.088 22.212 29.072C22.212 25.592 21.024 22.628 18.648 20.18C16.272 17.732 13.404 16.508 10.044 16.508ZM42.1491 23.744C42.9811 25.12 43.3971 26.64 43.3971 28.304C43.3971 30.896 42.5011 33.216 40.7091 35.264C38.9171 37.28 36.8051 38.288 34.3731 38.288C32.5171 38.288 31.0611 37.76 30.0051 36.704C28.9811 35.616 28.4691 34.128 28.4691 32.24C28.4691 29.2 29.6531 26.48 32.0211 24.08C34.3891 21.648 37.0451 20.432 39.9891 20.432C40.5331 20.432 40.9171 20.448 41.1411 20.48L41.2851 22.064C38.7251 22.064 36.5971 22.8 34.9011 24.272C33.2051 25.744 32.3571 27.632 32.3571 29.936C32.3571 31.312 32.6931 32.432 33.3651 33.296C34.0371 34.128 35.0131 34.544 36.2931 34.544C37.6051 34.544 38.6451 33.968 39.4131 32.816C40.1811 31.664 40.5651 30.32 40.5651 28.784C40.5651 27.216 40.2611 25.792 39.6531 24.512L42.1491 23.744ZM75.6332 32.432L76.6412 33.248C76.0972 34.592 75.2332 35.728 74.0492 36.656C72.8972 37.584 71.8412 38.048 70.8812 38.048C69.9532 38.048 69.2172 37.728 68.6732 37.088C68.1292 36.416 67.8572 35.552 67.8572 34.496C67.8572 33.44 68.0332 32.08 68.3852 30.416C66.8812 32.784 65.2652 34.64 63.5372 35.984C61.8092 37.328 60.3532 38 59.1692 38C57.3772 38 56.4812 36.864 56.4812 34.592C56.4812 34.368 56.7052 32.992 57.1532 30.464C55.6492 32.8 54.1292 34.56 52.5932 35.744C51.0892 36.896 49.7292 37.472 48.5132 37.472C46.7212 37.472 45.8252 36.336 45.8252 34.064L47.6492 32.336C47.6492 32.912 47.8572 33.408 48.2732 33.824C48.7212 34.24 49.2332 34.448 49.8092 34.448C50.8652 34.448 52.2892 33.552 54.0812 31.76C55.9052 29.968 57.5692 27.616 59.0732 24.704C59.3932 24.064 59.7612 23.312 60.1772 22.448C60.6252 21.552 60.9452 20.912 61.1372 20.528C61.3292 20.144 61.5532 19.728 61.8092 19.28C62.2252 18.576 62.6572 18.224 63.1052 18.224C63.5532 18.224 63.9212 18.4 64.2092 18.752C64.4972 19.104 64.6412 19.52 64.6412 20C64.6412 20.448 64.4972 20.976 64.2092 21.584C63.9532 22.192 63.5212 23.024 62.9132 24.08C62.3052 25.104 61.8252 25.952 61.4732 26.624C60.6412 28.8 60.2252 30.288 60.2252 31.088C60.2252 31.888 60.4332 32.496 60.8492 32.912C61.2972 33.328 61.8092 33.536 62.3852 33.536C63.4732 33.536 64.7692 32.704 66.2732 31.04C67.8092 29.344 69.3932 26.832 71.0252 23.504C71.2172 23.088 71.4412 22.624 71.6972 22.112C71.9532 21.568 72.1452 21.168 72.2732 20.912C72.4012 20.624 72.5452 20.304 72.7052 19.952C72.8972 19.6 73.0412 19.344 73.1372 19.184C73.2652 18.992 73.3932 18.816 73.5212 18.656C73.8092 18.368 74.1292 18.224 74.4812 18.224C74.8652 18.224 75.2012 18.4 75.4892 18.752C75.7772 19.104 75.9212 19.52 75.9212 20C75.9212 20.448 75.1212 22.432 73.5212 25.952C71.9532 29.44 71.1692 31.552 71.1692 32.288C71.1692 33.024 71.3132 33.568 71.6012 33.92C71.9212 34.272 72.2252 34.448 72.5132 34.448C72.8332 34.448 73.0732 34.432 73.2332 34.4C73.3932 34.368 73.5532 34.304 73.7132 34.208C73.8732 34.112 74.0012 34.032 74.0972 33.968C74.2252 33.904 74.3692 33.792 74.5292 33.632L74.8652 33.296C74.9612 33.2 75.0892 33.056 75.2492 32.864C75.4412 32.64 75.5692 32.496 75.6332 32.432Z" fill="#2FB0C6"/>
<path d="M0.907715 61V54.1318H3.69434C4.63379 54.1318 5.34896 54.2969 5.83984 54.627C6.33073 54.9528 6.57617 55.4225 6.57617 56.0361C6.57617 56.3535 6.47673 56.6392 6.27783 56.8931C6.08317 57.1427 5.79329 57.3353 5.4082 57.4707C5.85677 57.5638 6.21224 57.7521 6.47461 58.0356C6.73698 58.3192 6.86816 58.6535 6.86816 59.0386C6.86816 59.6776 6.63118 60.1642 6.15723 60.4985C5.6875 60.8328 5.01042 61 4.12598 61H0.907715ZM2.4502 58.0737V59.7812H4.13867C4.93001 59.7812 5.32568 59.4977 5.32568 58.9307C5.32568 58.3594 4.92367 58.0737 4.11963 58.0737H2.4502ZM2.4502 56.9692H3.71973C4.5957 56.9692 5.03369 56.7111 5.03369 56.1948C5.03369 55.6532 4.61898 55.3739 3.78955 55.3569H2.4502V56.9692ZM12.3081 61C12.2404 60.8688 12.1812 60.6551 12.1304 60.3589C11.6395 60.8709 11.0386 61.127 10.3276 61.127C9.63786 61.127 9.07503 60.9302 8.63916 60.5366C8.20329 60.1431 7.98535 59.6564 7.98535 59.0767C7.98535 58.3446 8.25618 57.7839 8.79785 57.3945C9.34375 57.001 10.1224 56.8042 11.1338 56.8042H12.0796V56.3535C12.0796 55.998 11.9801 55.7145 11.7812 55.5029C11.5824 55.2871 11.2798 55.1792 10.8735 55.1792C10.5223 55.1792 10.2345 55.2681 10.0103 55.4458C9.78597 55.6193 9.67383 55.8415 9.67383 56.1123H8.13135C8.13135 55.7357 8.25618 55.3844 8.50586 55.0586C8.75553 54.7285 9.09408 54.4704 9.52148 54.2842C9.95312 54.098 10.4334 54.0049 10.9624 54.0049C11.7664 54.0049 12.4076 54.208 12.8857 54.6143C13.3639 55.0163 13.6094 55.5833 13.6221 56.3154V59.4131C13.6221 60.0309 13.7088 60.5239 13.8823 60.8921V61H12.3081ZM10.6133 59.8892C10.918 59.8892 11.2036 59.8151 11.4702 59.667C11.741 59.5189 11.9442 59.32 12.0796 59.0703V57.7754H11.248C10.6768 57.7754 10.2472 57.8748 9.95947 58.0737C9.67171 58.2726 9.52783 58.554 9.52783 58.918C9.52783 59.2142 9.62516 59.4512 9.81982 59.6289C10.0187 59.8024 10.2832 59.8892 10.6133 59.8892ZM16.8403 54.1318V59.7686H18.9858V54.1318H20.5283V59.7686H22.6802V54.1318H24.2163V61H15.2979V54.1318H16.8403ZM28.9136 61.127C27.936 61.127 27.1426 60.8201 26.5332 60.2065C25.9281 59.5887 25.6255 58.7677 25.6255 57.7437V57.5532C25.6255 56.8677 25.7567 56.2562 26.019 55.7188C26.2856 55.1771 26.658 54.756 27.1362 54.4556C27.6144 54.1551 28.1476 54.0049 28.7358 54.0049C29.6711 54.0049 30.3926 54.3032 30.9004 54.8999C31.4124 55.4966 31.6685 56.3408 31.6685 57.4326V58.0547H27.1807C27.2272 58.6217 27.4155 59.0703 27.7456 59.4004C28.0799 59.7305 28.4989 59.8955 29.0024 59.8955C29.7091 59.8955 30.2847 59.6099 30.729 59.0386L31.5605 59.832C31.2855 60.2425 30.9173 60.562 30.4561 60.7905C29.999 61.0148 29.4849 61.127 28.9136 61.127ZM28.7295 55.2427C28.3063 55.2427 27.9635 55.3908 27.7012 55.687C27.443 55.9832 27.278 56.3958 27.2061 56.9248H30.145V56.8105C30.1112 56.2943 29.9736 55.9049 29.7324 55.6426C29.4912 55.376 29.1569 55.2427 28.7295 55.2427ZM37.1592 54.1318H38.6953V61H37.1592V56.417L34.4678 61H32.9316V54.1318H34.4678V58.7148L37.1592 54.1318ZM37.8828 51.4976C37.8828 52.0308 37.6966 52.4624 37.3242 52.7925C36.9518 53.1226 36.4546 53.2876 35.8325 53.2876C35.2104 53.2876 34.7132 53.1226 34.3408 52.7925C33.9684 52.4624 33.7822 52.0308 33.7822 51.4976H34.9375C34.9375 51.7769 35.0158 51.9948 35.1724 52.1514C35.3332 52.3037 35.5532 52.3799 35.8325 52.3799C36.1118 52.3799 36.3298 52.3037 36.4863 52.1514C36.6429 51.9948 36.7212 51.7769 36.7212 51.4976H37.8828ZM47.6519 59.1021L49.6831 54.1318H51.6128V61H50.0703V56.4551L48.1787 61H47.1313L45.2334 56.4297V61H43.6909V54.1318H45.6333L47.6519 59.1021ZM56.3735 61.127C55.396 61.127 54.6025 60.8201 53.9932 60.2065C53.388 59.5887 53.0854 58.7677 53.0854 57.7437V57.5532C53.0854 56.8677 53.2166 56.2562 53.479 55.7188C53.7456 55.1771 54.118 54.756 54.5962 54.4556C55.0744 54.1551 55.6076 54.0049 56.1958 54.0049C57.131 54.0049 57.8525 54.3032 58.3604 54.8999C58.8724 55.4966 59.1284 56.3408 59.1284 57.4326V58.0547H54.6406C54.6872 58.6217 54.8755 59.0703 55.2056 59.4004C55.5399 59.7305 55.9588 59.8955 56.4624 59.8955C57.1691 59.8955 57.7446 59.6099 58.189 59.0386L59.0205 59.832C58.7454 60.2425 58.3773 60.562 57.916 60.7905C57.459 61.0148 56.9448 61.127 56.3735 61.127ZM56.1895 55.2427C55.7663 55.2427 55.4235 55.3908 55.1611 55.687C54.903 55.9832 54.738 56.3958 54.666 56.9248H57.605V56.8105C57.5711 56.2943 57.4336 55.9049 57.1924 55.6426C56.9512 55.376 56.6169 55.2427 56.1895 55.2427ZM65.8379 61H64.2954V58.7085C63.8976 58.8016 63.4787 58.8481 63.0386 58.8481C62.0991 58.8481 61.3818 58.6239 60.8867 58.1753C60.3916 57.7225 60.144 57.075 60.144 56.2329V54.1255H61.6865V56.2329C61.6865 56.7323 61.7965 57.0856 62.0166 57.293C62.2409 57.5003 62.5815 57.604 63.0386 57.604C63.4533 57.604 63.8722 57.5553 64.2954 57.458V54.1318H65.8379V61ZM72.8838 55.3569H70.6558V61H69.1133V55.3569H66.9106V54.1318H72.8838V55.3569ZM75.5752 56.3154H77.0859C77.6488 56.3154 78.1396 56.4128 78.5586 56.6074C78.9775 56.8021 79.2949 57.075 79.5107 57.4263C79.7308 57.7775 79.8408 58.1859 79.8408 58.6514C79.8408 59.3581 79.5911 59.9251 79.0918 60.3525C78.5924 60.7799 77.9281 60.9958 77.0986 61H74.0327V54.1318H75.5752V56.3154ZM82.5259 61H80.9834V54.1318H82.5259V61ZM75.5752 57.5532V59.7686H77.0796C77.4562 59.7686 77.7524 59.6755 77.9683 59.4893C78.1883 59.2988 78.2983 59.0301 78.2983 58.6831C78.2983 58.3361 78.1904 58.0632 77.9746 57.8643C77.763 57.6611 77.4753 57.5575 77.1113 57.5532H75.5752Z" fill="#E0E0E0"/>
<line x1="8" y1="45.5" x2="75" y2="45.5" stroke="#BDBDBD"/>
</svg>
