<svg width="18" height="18" fill="none" xmlns="http://www.w3.org/2000/svg"><g clip-path="url(#clip0)"><path d="M17.214 1.172c-.812-.438-1.718.406-2.25.906-1.218 1.187-2.249 2.561-3.405 3.811-1.28 1.375-2.468 2.75-3.78 4.093-.75.75-1.562 1.562-2.062 2.499-1.124-1.094-2.093-2.28-3.342-3.25-.906-.687-2.406-1.186-2.375.47.063 2.155 1.969 4.467 3.374 5.935.594.625 1.375 1.28 2.281 1.312 1.093.063 2.218-1.25 2.874-1.968 1.156-1.25 2.093-2.655 3.155-3.936 1.375-1.687 2.78-3.343 4.124-5.061.844-1.062 3.5-3.687 1.406-4.811zM1.375 9.575c-.031 0-.062 0-.125.032a1.52 1.52 0 01-.344-.125c.094-.063.25-.032.469.093z" fill="#000"/></g><defs><clipPath id="clip0"><path fill="#fff" d="M0 0h18v18H0z"/></clipPath></defs></svg>