<svg width="50" height="50" fill="none" xmlns="http://www.w3.org/2000/svg"><path d="M47.58 3.226h-7.257V0H10.15L0 10.15V50h40.323V19.355h7.258A2.422 2.422 0 0050 16.935V5.646a2.422 2.422 0 00-2.42-2.42zM9.678 2.753v6.924H2.753l6.924-6.924zM38.71 48.387H1.613V11.29h9.677V1.613h27.42v1.613H18.548a2.422 2.422 0 00-2.419 2.42v11.29a2.422 2.422 0 002.42 2.419h20.16v29.032zm9.677-31.451a.808.808 0 01-.806.806H18.548a.808.808 0 01-.806-.806V5.646c0-.445.362-.807.806-.807h29.033c.444 0 .806.362.806.806v11.29z" fill="#1C5870"/><path d="M24.597 6.452h-5.242v9.677h1.613v-4.032h3.63a2.826 2.826 0 002.822-2.823 2.826 2.826 0 00-2.823-2.822zm0 4.032h-3.629v-2.42h3.63c.666 0 1.21.543 1.21 1.21 0 .667-.544 1.21-1.21 1.21zM4.838 12.903H3.226v1.613h1.612v-1.613zm3.227 0H6.452v1.613h1.613v-1.613zm-3.227 3.226H3.226v1.613h1.612v-1.613zm27.42-9.677h-3.226v9.677h3.226a4.843 4.843 0 004.839-4.839 4.844 4.844 0 00-4.839-4.838zm0 8.064h-1.613V8.065h1.613a3.229 3.229 0 013.226 3.225 3.229 3.229 0 01-3.226 3.226zm6.452 1.613h1.613v-4.032h4.839v-1.613h-4.84v-2.42h6.453V6.453H38.71v9.677zm-22.58 8.797v.733c0 .784.229 1.543.664 2.195l2.398 3.598-4.839 7.258H8.797a3.963 3.963 0 00-3.958 3.958v.148a3.963 3.963 0 003.958 3.958 3.95 3.95 0 003.293-1.763l3.127-4.688h9.89l3.125 4.688a3.95 3.95 0 003.294 1.763 3.963 3.963 0 003.958-3.958v-.148a3.963 3.963 0 00-3.958-3.958H25.97l-4.84-7.258 2.4-3.598a3.946 3.946 0 00.664-2.195v-.733a3.963 3.963 0 00-3.958-3.958h-.149a3.963 3.963 0 00-3.958 3.958zm-5.381 19.19a2.34 2.34 0 01-1.952 1.045 2.348 2.348 0 01-2.345-2.345v-.148a2.348 2.348 0 012.345-2.345h4.481l-2.53 3.794zm20.777-3.793a2.348 2.348 0 012.345 2.345v.148a2.348 2.348 0 01-2.345 2.345 2.34 2.34 0 01-1.952-1.044l-2.53-3.794h4.482zm-7.495-1.613h-7.74l3.87-5.804 3.87 5.804zm-6.289-13.784a2.348 2.348 0 012.345-2.345h.149a2.348 2.348 0 012.345 2.345v.733c0 .464-.136.914-.394 1.3l-2.026 3.039-2.025-3.04a2.336 2.336 0 01-.394-1.3v-.732z" fill="#1C5870"/><path d="M20.968 41.935h-1.613v1.613h1.613v-1.613zm3.226 0h-1.613v1.613h1.613v-1.613zm-6.452 0h-1.613v1.613h1.613v-1.613z" fill="#1C5870"/></svg>